<svg width="680" height="680" viewBox="0 0 680 680" fill="none" xmlns="http://www.w3.org/2000/svg">
<path d="M329.498 40.5928C335.687 37.0185 343.313 37.0185 349.502 40.5928L593.252 181.362C599.439 184.935 603.25 191.537 603.25 198.682V397.959L350.509 238.965C348.171 237.494 345.228 238.281 343.936 240.721C342.643 243.161 343.489 246.33 345.826 247.801L603.25 409.741V480.23C603.25 487.375 599.439 493.977 593.252 497.55L349.502 638.319C343.313 641.894 335.687 641.894 329.498 638.319L85.748 497.55C79.5613 493.977 75.75 487.375 75.75 480.23V268.458L333.963 430.896C336.3 432.366 339.243 431.58 340.536 429.141C341.829 426.701 340.983 423.53 338.646 422.06L75.75 256.677V198.682C75.75 191.537 79.5614 184.935 85.748 181.362L329.498 40.5928Z" fill="url(#paint0_linear_59_13)"/>
<path d="M322.5 15.877C333.329 9.62487 346.671 9.62487 357.5 15.877L611.948 162.783C622.777 169.035 629.448 180.59 629.448 193.094V486.906C629.448 499.41 622.777 510.965 611.948 517.217L357.5 664.123C346.671 670.375 333.329 670.375 322.5 664.123L68.0518 517.217C57.2228 510.965 50.5519 499.41 50.5518 486.906V193.094C50.5518 180.59 57.2228 169.035 68.0518 162.783L322.5 15.877Z" stroke="url(#paint1_linear_59_13)" stroke-width="10"/>
<defs>
<linearGradient id="paint0_linear_59_13" x1="644.052" y1="536.241" x2="9.07774" y2="190.133" gradientUnits="userSpaceOnUse">
<stop stop-color="#8EC5FF"/>
<stop offset="1" stop-color="#00BCA2"/>
</linearGradient>
<linearGradient id="paint1_linear_59_13" x1="340" y1="0" x2="340" y2="680" gradientUnits="userSpaceOnUse">
<stop stop-color="#00BCA2"/>
<stop offset="1" stop-color="#41B883"/>
</linearGradient>
</defs>
</svg>
